<svg width="20" height="20" viewBox="0 0 20 20" fill="none" xmlns="http://www.w3.org/2000/svg">
<path d="M7.11199 4.14083C6.93882 4.13702 6.76876 4.18722 6.62547 4.28452C6.48217 4.38183 6.37275 4.52143 6.31242 4.6838C6.2521 4.84617 6.24386 5.02327 6.28885 5.19054C6.33385 5.3578 6.42984 5.50682 6.56348 5.61701L11.6628 9.9855L6.56348 14.3524C6.47103 14.4204 6.39361 14.5066 6.33606 14.6059C6.27851 14.7052 6.24208 14.8153 6.22903 14.9292C6.21599 15.0432 6.22663 15.1587 6.26027 15.2684C6.29392 15.378 6.34985 15.4796 6.42456 15.5667C6.49927 15.6538 6.59116 15.7244 6.69447 15.7743C6.79777 15.8242 6.91027 15.8523 7.02492 15.8567C7.13956 15.8611 7.25389 15.8419 7.36073 15.8001C7.46758 15.7583 7.56464 15.6949 7.64584 15.6138L13.4841 10.6186C13.5757 10.5404 13.6494 10.4433 13.6998 10.3338C13.7503 10.2244 13.7765 10.1053 13.7765 9.98473C13.7765 9.8642 13.7503 9.74507 13.6998 9.63562C13.6494 9.52618 13.5757 9.42897 13.4841 9.35073L7.64584 4.35075C7.49836 4.21975 7.30919 4.14547 7.11199 4.14083Z" fill="#302A2A"/>
</svg>
