<svg width="20" height="20" viewBox="0 0 20 20" fill="none" xmlns="http://www.w3.org/2000/svg">
<path d="M11.3366 14.0886C11.1322 14.1077 10.9269 14.0615 10.7503 13.9568C10.6212 13.8243 10.5593 13.6403 10.5821 13.4568C10.5869 13.3039 10.6051 13.1518 10.6366 13.0022C10.6671 12.8306 10.7066 12.6607 10.7548 12.4931L11.2912 10.6477C11.3465 10.4655 11.383 10.2782 11.4003 10.0886C11.4003 9.88402 11.4275 9.74308 11.4275 9.66129C11.4389 9.29672 11.2833 8.94687 11.0048 8.71129C10.6623 8.44832 10.2357 8.31906 9.80481 8.34765C9.49602 8.3523 9.18961 8.40285 8.8957 8.49765C8.57449 8.59765 8.2366 8.71734 7.88207 8.85675L7.72754 9.45675C7.83207 9.42039 7.95938 9.37949 8.1048 9.33402C8.24355 9.29293 8.38738 9.27148 8.53207 9.27039C8.73504 9.24839 8.93934 9.29824 9.10934 9.41129C9.2248 9.54906 9.27898 9.72804 9.25934 9.90675C9.25883 10.0596 9.24207 10.212 9.20934 10.3613C9.1775 10.5204 9.1366 10.6886 9.0866 10.8658L8.5457 12.7203C8.50211 12.8927 8.46723 13.0672 8.44117 13.2431C8.41992 13.3937 8.4093 13.5455 8.40934 13.6976C8.40711 14.0647 8.57496 14.4121 8.86387 14.6385C9.21168 14.9056 9.64434 15.038 10.082 15.0112C10.3902 15.0176 10.6974 14.973 10.9911 14.8794C11.2487 14.7915 11.5927 14.6658 12.023 14.5021L12.1684 13.9294C12.0519 13.9778 11.9318 14.0173 11.8093 14.0476C11.6544 14.083 11.4954 14.0967 11.3366 14.0886Z" fill="#8747C6"/>
<path d="M11.9041 5.34132C11.6568 5.11413 11.3308 4.9919 10.995 5.00042C10.6594 4.99284 10.3338 5.11495 10.0859 5.34132C9.63156 5.73311 9.58081 6.41909 9.97265 6.8735C10.0076 6.91401 10.0454 6.95186 10.0859 6.98678C10.6036 7.44979 11.3865 7.44979 11.9041 6.98678C12.3585 6.59112 12.4061 5.90206 12.0104 5.44768C11.9775 5.40983 11.942 5.37428 11.9041 5.34132Z" fill="#8747C6"/>
<path d="M10 0C4.47715 0 0 4.47715 0 10C0 15.5229 4.47715 20 10 20C15.5229 20 20 15.5229 20 10C20 4.47715 15.5229 0 10 0ZM10 19.0909C4.97922 19.0909 0.909102 15.0208 0.909102 10C0.909102 4.97922 4.97922 0.909102 10 0.909102C15.0208 0.909102 19.0909 4.97922 19.0909 10C19.0909 15.0208 15.0208 19.0909 10 19.0909Z" fill="#8747C6"/>
</svg>
