<svg width="17" height="18" viewBox="0 0 17 18" fill="none" xmlns="http://www.w3.org/2000/svg">
<path d="M8.125 17.6411C7.8768 17.6409 7.63278 17.5771 7.41617 17.4559L4.60775 15.8959C3.21164 15.1196 2.04834 13.9843 1.23823 12.6075C0.428115 11.2307 0.000627452 9.66247 3.22478e-07 8.06503V3.73523C-0.000239499 3.37474 0.133292 3.02699 0.374738 2.75931C0.616184 2.49163 0.948367 2.32306 1.30697 2.28625C2.42421 2.16789 3.52379 1.91936 4.58333 1.54572C5.55483 1.20237 6.48679 0.756038 7.36328 0.214333C7.59262 0.0740991 7.85624 -7.20001e-05 8.12506 5.24458e-08C8.39388 7.2105e-05 8.65745 0.0743845 8.88672 0.214742C9.76331 0.756154 10.6953 1.20235 11.6667 1.54572C12.7262 1.91937 13.8258 2.16791 14.943 2.28628C15.3016 2.32309 15.6338 2.49165 15.8753 2.75933C16.1167 3.027 16.2502 3.37475 16.25 3.73523V8.06506C16.2494 9.66249 15.8219 11.2307 15.0118 12.6075C14.2017 13.9843 13.0384 15.1196 11.6422 15.8959L8.83301 17.4564C8.61663 17.5773 8.3729 17.6409 8.125 17.6411ZM8.125 1.24865C8.08828 1.24848 8.05222 1.25848 8.02083 1.27754C7.06826 1.86578 6.05557 2.35097 5 2.72405C3.84842 3.13042 2.65321 3.40055 1.4388 3.5289C1.3872 3.53338 1.33916 3.55707 1.3042 3.59528C1.26923 3.63349 1.24989 3.68343 1.25 3.73523V8.06506C1.25049 9.43957 1.61832 10.789 2.3154 11.9736C3.01249 13.1582 4.0135 14.135 5.21484 14.8029L8.02409 16.3634C8.05476 16.3807 8.08935 16.3898 8.12454 16.3898C8.15974 16.3899 8.19436 16.381 8.2251 16.3638L11.0352 14.803C12.2365 14.1351 13.2375 13.1583 13.9346 11.9736C14.6317 10.789 14.9995 9.43958 15 8.06506V3.73523C15.0001 3.68344 14.9808 3.6335 14.9458 3.59529C14.9108 3.55709 14.8628 3.5334 14.8112 3.52893C13.5968 3.40056 12.4016 3.13043 11.25 2.72405C10.1944 2.35096 9.18174 1.86617 8.22917 1.27793C8.19789 1.25857 8.16178 1.24842 8.125 1.24865Z" fill="#8747C6"/>
<path d="M7.70841 10.6784C7.55536 10.6787 7.4076 10.6224 7.29341 10.5205L5.41841 8.85386C5.29509 8.74363 5.2205 8.58901 5.21099 8.42387C5.20149 8.25874 5.25785 8.09657 5.36771 7.97292C5.47757 7.84927 5.63198 7.77422 5.79709 7.76423C5.96219 7.75424 6.12452 7.81012 6.2485 7.91961L7.66858 9.18182L10.3777 6.29242C10.4336 6.23149 10.501 6.18224 10.5761 6.14754C10.6511 6.11285 10.7323 6.09338 10.8149 6.09028C10.8976 6.08718 10.98 6.10051 11.0574 6.12948C11.1349 6.15846 11.2058 6.20251 11.2661 6.25908C11.3264 6.31566 11.3748 6.38364 11.4087 6.45908C11.4425 6.53452 11.461 6.61592 11.4632 6.69857C11.4653 6.78122 11.4511 6.86348 11.4212 6.94058C11.3913 7.01768 11.3465 7.08808 11.2892 7.14772L8.16421 10.4811C8.10584 10.5435 8.03525 10.5932 7.95684 10.6271C7.87842 10.6611 7.79386 10.6785 7.70841 10.6784Z" fill="#8747C6"/>
</svg>
