<svg width="18" height="18" viewBox="0 0 18 18" fill="none" xmlns="http://www.w3.org/2000/svg">
<path d="M13.125 17.9167H1.45833C1.0717 17.9162 0.701044 17.7624 0.427655 17.489C0.154266 17.2156 0.000469727 16.845 0 16.4583V1.45833C0.000469727 1.0717 0.154266 0.701044 0.427655 0.427655C0.701044 0.154266 1.0717 0.000469727 1.45833 0H13.125C13.5116 0.000469727 13.8823 0.154266 14.1557 0.427655C14.4291 0.701044 14.5829 1.0717 14.5833 1.45833V10.625C14.5833 10.7908 14.5175 10.9497 14.4003 11.0669C14.2831 11.1842 14.1241 11.25 13.9583 11.25C13.7926 11.25 13.6336 11.1842 13.5164 11.0669C13.3992 10.9497 13.3333 10.7908 13.3333 10.625V1.45833C13.3327 1.40328 13.3105 1.35067 13.2716 1.31174C13.2327 1.27281 13.1801 1.25065 13.125 1.25H1.45833C1.40328 1.25065 1.35067 1.27281 1.31174 1.31174C1.27281 1.35067 1.25065 1.40328 1.25 1.45833V16.4583C1.25065 16.5134 1.27281 16.566 1.31174 16.6049C1.35067 16.6439 1.40328 16.666 1.45833 16.6667H13.125C13.2816 16.6044 13.4563 16.6056 13.612 16.6702C13.7677 16.7347 13.8921 16.8573 13.9587 17.0121C13.9912 17.0867 14.0085 17.1669 14.0096 17.2482C14.0107 17.3294 13.9956 17.4101 13.9652 17.4855C13.9347 17.5609 13.8896 17.6294 13.8324 17.6872C13.7752 17.7449 13.7071 17.7907 13.632 17.8219C13.4706 17.8857 13.2985 17.9179 13.125 17.9167Z" fill="#8747C6"/>
<path d="M11.042 4.58203H3.54199C3.37623 4.58203 3.21726 4.51618 3.10005 4.39897C2.98284 4.28176 2.91699 4.12279 2.91699 3.95703C2.91699 3.79127 2.98284 3.6323 3.10005 3.51509C3.21726 3.39788 3.37623 3.33203 3.54199 3.33203H11.042C11.2078 3.33203 11.3667 3.39788 11.4839 3.51509C11.6011 3.6323 11.667 3.79127 11.667 3.95703C11.667 4.12279 11.6011 4.28176 11.4839 4.39897C11.3667 4.51618 11.2078 4.58203 11.042 4.58203Z" fill="#8747C6"/>
<path d="M11.042 7.91797H3.54199C3.37623 7.91797 3.21726 7.85212 3.10005 7.73491C2.98284 7.6177 2.91699 7.45873 2.91699 7.29297C2.91699 7.12721 2.98284 6.96824 3.10005 6.85103C3.21726 6.73382 3.37623 6.66797 3.54199 6.66797H11.042C11.2078 6.66797 11.3667 6.73382 11.4839 6.85103C11.6011 6.96824 11.667 7.12721 11.667 7.29297C11.667 7.45873 11.6011 7.6177 11.4839 7.73491C11.3667 7.85212 11.2078 7.91797 11.042 7.91797Z" fill="#8747C6"/>
<path d="M8.95866 11.25H3.54199C3.37623 11.25 3.21726 11.1842 3.10005 11.0669C2.98284 10.9497 2.91699 10.7908 2.91699 10.625C2.91699 10.4592 2.98284 10.3003 3.10005 10.1831C3.21726 10.0658 3.37623 10 3.54199 10H8.95866C9.12442 10 9.28339 10.0658 9.4006 10.1831C9.51781 10.3003 9.58366 10.4592 9.58366 10.625C9.58366 10.7908 9.51781 10.9497 9.4006 11.0669C9.28339 11.1842 9.12442 11.25 8.95866 11.25Z" fill="#8747C6"/>
<path d="M8.12533 14.582H3.54199C3.37623 14.582 3.21726 14.5162 3.10005 14.399C2.98284 14.2818 2.91699 14.1228 2.91699 13.957C2.91699 13.7913 2.98284 13.6323 3.10005 13.5151C3.21726 13.3979 3.37623 13.332 3.54199 13.332H8.12533C8.29109 13.332 8.45006 13.3979 8.56727 13.5151C8.68448 13.6323 8.75033 13.7913 8.75033 13.957C8.75033 14.1228 8.68448 14.2818 8.56727 14.399C8.45006 14.5162 8.29109 14.582 8.12533 14.582Z" fill="#8747C6"/>
<path d="M13.9583 17.9167C13.1755 17.9167 12.4101 17.6845 11.7592 17.2496C11.1083 16.8146 10.6009 16.1964 10.3013 15.4731C10.0017 14.7498 9.92333 13.9539 10.0761 13.1861C10.2288 12.4183 10.6058 11.713 11.1594 11.1594C11.713 10.6058 12.4183 10.2288 13.1861 10.0761C13.9539 9.92333 14.7498 10.0017 15.4731 10.3013C16.1964 10.6009 16.8146 11.1083 17.2496 11.7592C17.6845 12.4101 17.9167 13.1755 17.9167 13.9583C17.9155 15.0078 17.4981 16.0139 16.756 16.756C16.0139 17.4981 15.0078 17.9155 13.9583 17.9167ZM13.9583 11.25C13.4227 11.25 12.899 11.4088 12.4537 11.7064C12.0083 12.004 11.6611 12.427 11.4562 12.9219C11.2512 13.4168 11.1975 13.9613 11.302 14.4867C11.4065 15.0121 11.6645 15.4946 12.0433 15.8734C12.422 16.2522 12.9046 16.5101 13.43 16.6146C13.9553 16.7191 14.4999 16.6655 14.9948 16.4605C15.4897 16.2555 15.9126 15.9084 16.2102 15.463C16.5078 15.0176 16.6667 14.494 16.6667 13.9583C16.6658 13.2403 16.3802 12.5519 15.8725 12.0442C15.3648 11.5364 14.6764 11.2508 13.9583 11.25Z" fill="#8747C6"/>
<path d="M13.5419 15.4189C13.4598 15.419 13.3785 15.4029 13.3027 15.3714C13.2269 15.34 13.158 15.2939 13.1 15.2358L12.2667 14.4025C12.2083 14.3445 12.1619 14.2756 12.1303 14.1997C12.0986 14.1238 12.0822 14.0424 12.082 13.9601C12.0819 13.8778 12.098 13.7964 12.1294 13.7203C12.1608 13.6443 12.2069 13.5752 12.2651 13.5171C12.3232 13.4589 12.3923 13.4128 12.4683 13.3814C12.5444 13.35 12.6258 13.3339 12.7081 13.334C12.7904 13.3342 12.8718 13.3506 12.9477 13.3822C13.0236 13.4139 13.0925 13.4603 13.1505 13.5187L13.5419 13.9101L14.7667 12.6853C14.884 12.5688 15.0428 12.5036 15.2081 12.5039C15.3735 12.5042 15.5319 12.57 15.6489 12.6869C15.7658 12.8039 15.8316 12.9624 15.8319 13.1277C15.8322 13.2931 15.767 13.4518 15.6505 13.5691L13.9838 15.2358C13.9258 15.2939 13.857 15.34 13.7811 15.3714C13.7053 15.4029 13.624 15.419 13.5419 15.4189Z" fill="#8747C6"/>
</svg>
