<svg width="8" height="14" viewBox="0 0 8 14" fill="none" xmlns="http://www.w3.org/2000/svg">
<path d="M7.69402 13.6915C7.88994 13.4939 8 13.226 8 12.9466C8 12.6672 7.88994 12.3993 7.69402 12.2017L2.52157 6.98657L7.69402 1.77143C7.87838 1.57176 7.97874 1.30778 7.97398 1.03502C7.96921 0.76226 7.8597 0.501998 7.66849 0.308992C7.47728 0.115987 7.21926 0.00528717 6.94874 0.000184059C6.67822 -0.00491905 6.41629 0.095973 6.21805 0.281632L0.305977 6.24084C0.110061 6.43842 0 6.70636 0 6.98574C0 7.26513 0.110061 7.53307 0.305977 7.73064L6.21641 13.6915C6.41237 13.889 6.67812 14 6.95522 14C7.23232 14 7.49807 13.889 7.69402 13.6915Z" fill="black"/>
</svg>
